<?xml version="1.0" encoding="UTF-8"?>
<svg id="Layer_1" data-name="Layer 1" xmlns="http://www.w3.org/2000/svg" viewBox="0 0 500 500">
  <defs>
    <style>
      .cls-1 {
        fill: #984b20;
      }
    </style>
  </defs>
  <path class="cls-1" d="M358.66,147.89c-5.97-14.11-14.6-26.82-25.27-37.48h0c-10.66-10.67-23.37-19.3-37.48-25.27-14.11-5.97-29.63-9.27-45.9-9.27h0s0,0,0,0h0c-16.27,0-31.79,3.3-45.9,9.27-14.11,5.97-26.82,14.6-37.48,25.27h0c-10.67,10.66-19.3,23.37-25.27,37.48-5.97,14.11-9.27,29.63-9.27,45.9h0v104.73h0c0,1.35.02,2.69.07,4.02-.04,1.22-.06,2.44-.06,3.67h0s0,0,0,0h0c0,16.28,3.3,31.8,9.27,45.91,5.97,14.11,14.6,26.82,25.27,37.48h0c10.66,10.66,23.37,19.3,37.48,25.27,14.11,5.97,29.63,9.27,45.9,9.27h.01c16.27,0,31.79-3.3,45.9-9.27,14.11-5.97,26.82-14.6,37.48-25.27h0c10.66-10.66,19.3-23.37,25.27-37.48,5.97-14.11,9.27-29.62,9.27-45.89h0v-.02h0c0-1.25-.02-2.48-.06-3.71.04-1.32.07-2.65.07-3.98h0v-104.72h0c0-16.28-3.3-31.8-9.27-45.91ZM325.22,381.43c-9.63,9.63-21.08,17.41-33.8,22.79-12.72,5.38-26.69,8.36-41.39,8.36h-.01s-.02,0-.02,0h0c-14.7,0-28.68-2.98-41.4-8.36-12.72-5.38-24.18-13.17-33.81-22.8-9.63-9.63-17.42-21.09-22.8-33.81-5.38-12.72-8.36-26.71-8.36-41.4,0-1.21.02-2.42.06-3.62.47-13.98,3.63-27.25,8.97-39.35,5.35-12.1,12.89-23.01,22.12-32.25,9.63-9.63,21.09-17.42,33.81-22.8,12.72-5.38,26.71-8.36,41.4-8.36h0c14.7,0,28.68,2.98,41.4,8.36,12.72,5.38,24.18,13.17,33.81,22.8,9.23,9.23,16.77,20.14,22.12,32.23,5.35,12.09,8.51,25.36,8.98,39.34.04,1.21.06,2.43.06,3.65,0,14.7-2.98,28.68-8.36,41.4-5.38,12.72-13.17,24.18-22.8,33.81ZM174.78,118.58c9.63-9.63,21.09-17.42,33.81-22.8,12.72-5.38,26.71-8.36,41.41-8.36,14.7,0,28.68,2.98,41.41,8.36,12.72,5.38,24.18,13.17,33.82,22.8h0c9.63,9.63,17.42,21.09,22.8,33.81,5.38,12.72,8.36,26.71,8.36,41.41v61.48c-5.81-12.11-13.62-23.07-23-32.45-10.66-10.66-23.37-19.3-37.48-25.27-14.11-5.97-29.62-9.27-45.89-9.27h0s0,0,0,0h0c-16.27,0-31.79,3.3-45.9,9.27-14.11,5.97-26.82,14.6-37.48,25.27-9.38,9.38-17.19,20.34-23,32.45v-61.48c0-14.7,2.98-28.68,8.36-41.41,5.38-12.72,13.17-24.18,22.8-33.81Z"/>
  <g>
    <polygon class="cls-1" points="223.9 127.27 212.72 138.45 212.72 188.95 223.9 186.02 223.9 127.27"/>
    <polygon class="cls-1" points="287.28 138.45 276.1 127.27 276.1 186.02 287.28 188.95 287.28 138.45"/>
    <polygon class="cls-1" points="192.2 158.97 181.02 170.15 181.02 204.79 192.2 198.13 192.2 158.97"/>
    <polygon class="cls-1" points="318.98 204.79 318.98 170.15 307.8 158.97 307.8 198.11 307.81 198.14 318.98 204.79"/>
    <polygon class="cls-1" points="250 183.18 255.59 183.19 255.59 106.76 250 101.17 244.41 106.76 244.41 183.19 250 183.18 250 183.18"/>
  </g>
  <g>
    <path class="cls-1" d="M350.06,304.42h-15.59v32.12h-11.05v-98.6c-4.17-4.35-6.28-6.38-10.9-10v108.61h-11.07v-52c-39.19,0-32.9,31.5-32.9,44.84,8.52,0,21.86,0,21.86,0v7.15h-32.97l-.06-32.9h-11.01v32.92h-10.97c0-11.25-.03-32.91-.03-32.91h-10.93s-.08,32.91-.08,32.91h-10.96v-32.91h-11v32.91h-11.03v-32.91h-11v53.97c-.1.03-.21.06-.31.09-12.08-16.75-17.72-37.87-16.27-58.41.77-10.89,3.54-21.64,8.13-31.54.96-2.08,2.01-4.12,3.13-6.12.89-1.59,3.56-6.06,3.56-6.06,0,0-8.6-5.31-11.19-6.74-15.33,23.73-21.41,51.37-15.08,79.26,2.81,12.37,7.84,24.23,15.08,34.67,3.34,4.82,7.13,9.32,11.29,13.46,2.15,2.15,4.4,4.21,6.75,6.15q3.39,2.27,5.92,3.88v-32.6h146.79c3.7-6.04,6.25-12.41,8.11-19.21,2.53-9.29,4.57-20.35,3.79-30.02ZM290.42,316.02c-1.56,0-8.49,0-11.06.02v-12.46h11.06v12.43Z"/>
    <rect class="cls-1" x="268.36" y="262.62" width="11" height="11.6"/>
    <rect class="cls-1" x="290.46" y="262.61" width="11.02" height="11.62"/>
    <rect class="cls-1" x="224.3" y="360.2" width="11" height="11.6"/>
    <rect class="cls-1" x="246.41" y="360.19" width="11.02" height="11.62"/>
    <path class="cls-1" d="M319.52,371.81h5.89c2.6-2.9,1.91-2.15,5.08-5.8v-5.82h-10.97v11.62Z"/>
  </g>
</svg>