<?xml version="1.0" encoding="UTF-8"?>
<svg id="Layer_2" data-name="Layer 2" xmlns="http://www.w3.org/2000/svg" viewBox="0 0 283.07 283.07">
  <defs>
    <style>
      .cls-1 {
        fill: #984b20;
      }
    </style>
  </defs>
  <g id="Layer_1-2" data-name="Layer 1">
    <g>
      <path class="cls-1" d="M141.53,115.73l-14.88-57.87-7.47-29.05c-3.75-14.6,7.27-28.82,22.35-28.82s26.1,14.22,22.35,28.82l-7.47,29.05-14.88,57.87Z"/>
      <path class="cls-1" d="M141.53,167.33l14.88,57.87,7.47,29.05c3.75,14.6-7.27,28.82-22.35,28.82-15.07,0-26.1-14.22-22.35-28.82l7.47-29.05,14.88-57.87Z"/>
      <path class="cls-1" d="M115.73,141.53l-57.87,14.88-29.05,7.47c-14.6,3.75-28.82-7.27-28.82-22.35,0-15.07,14.22-26.1,28.82-22.35l29.05,7.47,57.87,14.88Z"/>
      <path class="cls-1" d="M167.33,141.53l57.87-14.88,29.05-7.47c14.6-3.75,28.82,7.27,28.82,22.35s-14.22,26.1-28.82,22.35l-29.05-7.47-57.87-14.88Z"/>
      <path class="cls-1" d="M141.53,130.92c-5.86,0-10.61,4.75-10.61,10.61,0,5.86,4.75,10.61,10.61,10.61,5.86,0,10.61-4.75,10.61-10.61,0-5.86-4.75-10.61-10.61-10.61"/>
    </g>
  </g>
</svg>