<?xml version="1.0" encoding="UTF-8"?>
<svg id="Layer_1" data-name="Layer 1" xmlns="http://www.w3.org/2000/svg" xmlns:xlink="http://www.w3.org/1999/xlink" viewBox="0 0 500 500">
  <defs>
    <style>
      .cls-1 {
        fill: #984b20;
      }

      .cls-2 {
        fill: none;
      }

      .cls-3 {
        clip-path: url(#clippath-1);
      }

      .cls-4 {
        fill: #994c23;
      }

      .cls-5 {
        clip-path: url(#clippath);
      }
    </style>
    <clipPath id="clippath">
      <rect class="cls-2" x="251.64" y="177.12" width="23.77" height="145.76"/>
    </clipPath>
    <clipPath id="clippath-1">
      <rect class="cls-2" x="53" y="176.63" width="171.8" height="162.01"/>
    </clipPath>
  </defs>
  <g>
    <path class="cls-1" d="M441.39,188.24c-3.61-8.54-8.83-16.22-15.28-22.67h0c-6.45-6.45-14.13-11.67-22.67-15.28-8.54-3.61-17.92-5.61-27.76-5.61h0s0,0,0,0h0c-9.84,0-19.23,2-27.76,5.61-8.54,3.61-16.22,8.83-22.67,15.28h0c-6.45,6.45-11.67,14.13-15.28,22.67-3.61,8.54-5.61,17.92-5.61,27.76h0v63.34h0c0,.82.01,1.62.04,2.43-.02.74-.03,1.48-.03,2.22h0s0,0,0,0h0c0,9.85,2,19.23,5.61,27.77,3.61,8.53,8.83,16.22,15.28,22.67h0c6.45,6.45,14.13,11.67,22.67,15.28,8.53,3.61,17.92,5.61,27.76,5.61h0c9.84,0,19.22-2,27.76-5.61,8.53-3.61,16.22-8.83,22.67-15.28h0c6.45-6.45,11.67-14.13,15.28-22.67,3.61-8.53,5.61-17.92,5.61-27.75h0c0-.76-.01-1.51-.03-2.25.03-.8.04-1.6.04-2.41h0v-63.34h0c0-9.84-2-19.23-5.61-27.77ZM421.17,329.49c-5.82,5.82-12.75,10.53-20.44,13.79-7.69,3.25-16.15,5.05-25.03,5.06h0s-.01,0-.01,0h0c-8.89,0-17.35-1.8-25.04-5.05-7.69-3.25-14.62-7.97-20.45-13.79-5.82-5.83-10.53-12.76-13.79-20.45-3.25-7.69-5.05-16.15-5.05-25.04,0-.73.01-1.46.04-2.19.28-8.45,2.19-16.48,5.43-23.8,3.23-7.32,7.8-13.92,13.38-19.5,5.83-5.82,12.76-10.53,20.45-13.79,7.69-3.25,16.15-5.05,25.04-5.05h0c8.89,0,17.35,1.8,25.04,5.05,7.69,3.25,14.62,7.97,20.45,13.79,5.58,5.58,10.14,12.18,13.38,19.5,3.23,7.31,5.15,15.34,5.43,23.79.02.73.04,1.47.04,2.21,0,8.89-1.8,17.35-5.05,25.04-3.25,7.69-7.97,14.62-13.79,20.45ZM330.18,170.51c5.83-5.82,12.76-10.54,20.45-13.79,7.7-3.25,16.15-5.05,25.04-5.05,8.89,0,17.35,1.8,25.04,5.05,7.69,3.25,14.63,7.97,20.45,13.79h0c5.82,5.83,10.54,12.76,13.79,20.45,3.25,7.7,5.05,16.15,5.05,25.04v37.18c-3.51-7.32-8.24-13.95-13.91-19.63-6.45-6.45-14.13-11.67-22.67-15.28-8.53-3.61-17.92-5.61-27.76-5.61h0s0,0,0,0h0c-9.84,0-19.22,2-27.76,5.61-8.53,3.61-16.22,8.83-22.67,15.28-5.68,5.67-10.4,12.3-13.91,19.63v-37.19c0-8.89,1.8-17.35,5.05-25.04,3.25-7.69,7.97-14.63,13.79-20.45Z"/>
    <g>
      <polygon class="cls-1" points="359.88 175.77 353.12 182.53 353.12 213.07 359.88 211.3 359.88 175.77"/>
      <polygon class="cls-1" points="398.22 182.53 391.46 175.77 391.46 211.3 398.22 213.07 398.22 182.53"/>
      <polygon class="cls-1" points="340.72 194.94 333.95 201.7 333.95 222.65 340.72 218.63 340.72 194.94"/>
      <polygon class="cls-1" points="417.39 222.65 417.39 201.7 410.63 194.94 410.63 218.61 410.64 218.63 417.39 222.65"/>
      <polygon class="cls-1" points="375.67 209.59 379.05 209.59 379.05 163.36 375.67 159.98 372.29 163.36 372.29 209.59 375.67 209.59 375.67 209.59"/>
    </g>
    <g>
      <path class="cls-1" d="M436.19,282.91h-9.43v19.43h-6.68v-59.64c-2.52-2.63-3.8-3.86-6.59-6.05v65.69h-6.7v-31.45c-23.71,0-19.9,19.05-19.9,27.12,5.15,0,13.22,0,13.22,0v4.32h-19.94l-.04-19.9h-6.66v19.91h-6.63c0-6.8-.02-19.91-.02-19.91h-6.61s-.05,19.91-.05,19.91h-6.63v-19.91h-6.65v19.9h-6.67v-19.9h-6.65v32.65c-.06.02-.12.03-.19.05-7.31-10.13-10.72-22.9-9.84-35.33.47-6.59,2.14-13.09,4.91-19.08.58-1.26,1.22-2.49,1.89-3.7.54-.96,2.16-3.67,2.16-3.67,0,0-5.2-3.21-6.77-4.08-9.27,14.35-12.95,31.07-9.12,47.94,1.7,7.48,4.74,14.66,9.12,20.97,2.02,2.92,4.31,5.64,6.83,8.14,1.3,1.3,2.66,2.55,4.08,3.72q2.05,1.38,3.58,2.34v-19.71h88.78c2.24-3.65,3.78-7.51,4.9-11.62,1.53-5.62,2.76-12.31,2.29-18.15ZM400.12,289.93c-.94,0-5.14,0-6.69.02v-7.54h6.69v7.52Z"/>
      <rect class="cls-1" x="386.78" y="257.63" width="6.65" height="7.02"/>
      <rect class="cls-1" x="400.15" y="257.63" width="6.67" height="7.03"/>
      <rect class="cls-1" x="360.13" y="316.65" width="6.65" height="7.02"/>
      <rect class="cls-1" x="373.5" y="316.65" width="6.67" height="7.03"/>
      <path class="cls-1" d="M417.72,323.67h3.56c1.57-1.75,1.16-1.3,3.07-3.51v-3.52h-6.64v7.03Z"/>
    </g>
  </g>
  <g class="cls-5">
    <path class="cls-4" d="M263.53,236.71l-7.66-29.8-3.85-14.96c-1.93-7.52,3.74-14.84,11.51-14.84h0c7.76,0,13.44,7.32,11.51,14.84l-3.85,14.96-7.66,29.8Z"/>
    <path class="cls-4" d="M263.53,263.29l7.66,29.8,3.85,14.96c1.93,7.52-3.74,14.84-11.51,14.84h0c-7.76,0-13.44-7.32-11.51-14.84l3.85-14.96,7.66-29.8Z"/>
    <path class="cls-4" d="M268.99,250c0-3.02-2.45-5.46-5.46-5.46s-5.46,2.45-5.46,5.46,2.45,5.46,5.46,5.46,5.46-2.45,5.46-5.46"/>
  </g>
  <g class="cls-3">
    <path class="cls-4" d="M79.43,326.71c-1.23-1.09-2.59-1.69-4.09-1.82l-3.13,5.1c-.49-1.2-1.3-2.3-2.44-3.31-1.23-1.07-2.59-1.67-4.09-1.79l-4.78,7.86c1.87.34,3.34,1.08,4.41,2.23,1.07,1.15,1.82,2.37,2.25,3.65l3.36-5.79c1.68.34,3.05,1.06,4.09,2.18,1.04,1.12,1.78,2.32,2.21,3.61l4.78-8.32c-.49-1.32-1.35-2.52-2.57-3.61"/>
    <path class="cls-4" d="M131.87,270.64c1.07,1.15,1.82,2.37,2.25,3.65l4.78-8.32c-.49-1.32-1.35-2.52-2.57-3.61-1.23-1.09-2.59-1.69-4.09-1.82l-4.78,7.86c1.87.34,3.34,1.08,4.41,2.23"/>
    <path class="cls-4" d="M197.36,313.84c-1.23-1.09-2.59-1.69-4.09-1.82l-3.13,5.1c-.49-1.19-1.3-2.3-2.44-3.31-1.23-1.07-2.59-1.67-4.09-1.79l-4.78,7.86c1.87.34,3.34,1.08,4.41,2.23,1.07,1.15,1.82,2.37,2.25,3.65l3.36-5.79c1.68.34,3.03,1.04,4.04,2.11,1.07,1.16,1.82,2.39,2.25,3.68l4.78-8.32c-.49-1.32-1.35-2.52-2.57-3.61"/>
    <path class="cls-4" d="M208.62,256.1l-4.96,8.41c1.96,7.75,3.03,15.61,3.22,23.58v1.75c0,1.16-.02,2.33-.05,3.49l-.09,2.67-.05.46h-6.63c-.13-.02-.29-.03-.49-.05v-.05c-.64-.06-1.18-.15-1.61-.28-1.26-.52-2.22-1.27-2.9-2.25.24-1.65.37-3.36.37-5.1,0-2.36-.3-4.67-.9-6.94-.6-2.27-1.62-4.29-3.06-6.07l-4.83,8.46c1.41,1.72,2.42,3.68,3.03,5.88.55,2.11.84,4.26.87,6.43h-12.13c-.37,0-.9-.14-1.61-.41-.8-.31-1.47-.72-2.02-1.24.34-1.23.47-2.28.41-3.17,0-1.01-.26-2.01-.78-2.99-.86-1.65-1.97-3.17-3.33-4.55-1.36-1.38-2.77-2.65-4.21-3.81-1.99-1.65-4.09-3.19-6.3-4.6l-8.5,15.35c-1.62,2.67-3.26,4.34-4.92,5.01-.71.28-1.23.41-1.56.41h-.97c-.15-.03-.41-.06-.78-.09v-.05c-.64-.06-1.18-.15-1.61-.28-1.26-.52-2.22-1.27-2.9-2.25.24-1.65.37-3.36.37-5.1,0-2.36-.3-4.67-.9-6.94-.6-2.27-1.62-4.29-3.06-6.07l-4.83,8.46c1.41,1.72,2.42,3.68,3.03,5.88.55,2.11.84,4.26.87,6.43h-32.4c-.98-.03-1.9-.28-2.76-.74-.86-.55-1.45-1.29-1.77-2.21-.32-.92-.48-1.9-.48-2.94,0-1.44.15-2.82.46-4.14.24-1.19.37-2.33.37-3.4-.06-2.6-1.5-4.58-4.32-5.93-1.41-.7-2.99-1.06-4.73-1.06-.34,0-.67.02-1.01.05-2.18.15-4.09.81-5.74,1.98-2.94,1.99-5.3,4.6-7.08,7.81-.8,1.2-1.66,2.73-2.6,4.62-.94,1.88-1.4,3.67-1.4,5.35,0,5.85,1.91,8.78,5.74,8.78l3.95-.05c2.73,0,4.09.32,4.09.97,0,.12-.06.28-.18.46-1.07,1.35-2.21,2.33-3.4,2.94-2.11,1.07-5.39,1.72-9.84,1.93-1.69.06-3.65-.18-5.88-.74-3.16-.77-5.29-2.18-6.41-4.25-1.12-2.07-1.68-4.44-1.68-7.1,0-2.3.77-5.74,2.3-10.34-.86.18-1.84,1.72-2.94,4.6-2.57,6.74-3.95,12.19-4.14,16.36,0,2.63.61,5.02,1.84,7.17,2.57,4.6,7.95,6.89,16.13,6.89,1.35,0,2.64-.12,3.88-.37,1.24-.25,3-.93,5.29-2.05,2.28-1.12,4.23-2.77,5.84-4.94,1.61-2.18,2.67-4.52,3.19-7.03.86-7.32,1.3-11.86,1.33-13.6,0-2.51-.89-3.77-2.67-3.77h-5.79c-.71,0-1.44-.06-2.21-.18-1.26-.18-2.27-.81-3.03-1.88-.37-.61-.57-1.29-.6-2.02,1.26-1.26,3.03-2.28,5.33-3.08,1.81-.61,3.4-.92,4.78-.92h.18c1.38.06,2.64.41,3.79,1.06,1.15.64,2.01,1.58,2.6,2.8.37.92.55,1.99.55,3.22,0,1.13-.13,2.34-.39,3.61-.26,1.27-.39,2.6-.39,3.98,0,7.29,1.68,11,5.06,11.12h36.26l3.49-9.19c.4,1.23,1.01,2.9,1.84,5.01.92,2.42,2.21,3.8,3.86,4.14h.32c.2.03.58.04,1.15.05h0s.03,0,.05,0c.03,0,.06,0,.09,0h0c.58,0,1.07-.02,1.47-.05,1.65-.34,2.95-.95,3.88-1.84.93-.89,1.6-2.73,2-5.52,0-.21.02-.41.05-.6.83,1.07,1.73,2.22,2.71,3.45,2.39,3.13,5.15,4.76,8.27,4.92,2.3.09,4.3-.92,6.02-3.03.67-.83,1.56-2.4,2.67-4.73h.05c.37,2.79,1.02,4.63,1.95,5.52.93.89,2.23,1.5,3.88,1.84.19.01.41.02.64.03h0s11.31.01,11.31.01l3.49-9.19c.4,1.23,1.01,2.9,1.84,5.01.92,2.42,2.21,3.8,3.86,4.14h.32c.09.01.21.02.37.03v.02h6.43l4.69-13.01c.7-3.19,1.07-6.39,1.1-9.61.09-1.53.14-3.06.14-4.6,0-7.66-.89-15.53-2.67-23.62-.21-.83-.43-1.67-.64-2.53M167.99,296.86h-.37c-2.18,0-4.31-.58-6.39-1.75-2.7-1.5-4.35-2.5-4.96-2.99l3.22-5.84c2.39,1.41,5.22,4.01,8.5,7.81.67.8,1.26,1.65,1.75,2.57-.58.12-1.16.18-1.75.18"/>
    <path class="cls-4" d="M221.49,256.1l-5.42,13.01c1.96,7.75,3.03,15.61,3.22,23.58l.05,2.16-.09,3.08-.23,11.44c2.3-5.85,3.8-10.08,4.5-12.68.52-2.3.87-4.43,1.03-6.39.17-1.96.25-3.84.25-5.65,0-1.53-.03-3.06-.09-4.6-.25-8.12-1.32-16.1-3.22-23.94"/>
    <path class="cls-4" d="M75.7,188.92c1.07,1.15,1.82,2.37,2.25,3.65l4.78-8.32c-.49-1.32-1.35-2.52-2.57-3.61-1.23-1.09-2.59-1.69-4.09-1.82l-4.78,7.86c1.87.34,3.34,1.08,4.41,2.23"/>
    <path class="cls-4" d="M113.07,234.42c-1.23-1.09-2.59-1.69-4.09-1.82l-4.78,7.86c1.87.34,3.34,1.08,4.41,2.23,1.07,1.15,1.82,2.37,2.25,3.65l4.78-8.32c-.49-1.32-1.35-2.52-2.57-3.61"/>
    <path class="cls-4" d="M208.62,176.67l-4.96,8.41c1.96,7.75,3.03,15.61,3.22,23.58v1.75c0,1.16-.02,2.33-.05,3.49l-.09,2.67-.05.46h-7.12v.05c-.37-.01-.89-.15-1.56-.41-.8-.31-1.47-.72-2.02-1.24.34-1.23.47-2.28.41-3.17,0-1.01-.26-2.01-.78-2.99-.86-1.65-1.97-3.17-3.33-4.55-1.36-1.38-2.77-2.65-4.21-3.81-1.99-1.65-4.09-3.19-6.3-4.6l-8.5,15.35c-1.62,2.67-3.26,4.34-4.92,5.01-.71.28-1.23.41-1.56.41h-.09c-.95-.06-1.79-.21-2.53-.46-1.23-.46-2.18-1.32-2.85-2.57-.06-1.96-.29-3.95-.69-5.97-.25-1.1-.55-2.16-.92-3.17v-.05c-.43-1.13-.97-2.22-1.61-3.26-1.53-2.21-3.45-3.31-5.74-3.31-1.26,0-2.54.31-3.86.92-1.32.61-2.62,1.37-3.91,2.27-1.29.9-2.53,1.85-3.72,2.83-4.69,3.71-8.73,7.95-12.13,12.73h-.09c.92-3.8,1.58-7.6,1.98-11.4.18-2.63.28-5.29.28-7.95,0-7.08-.66-14.09-1.98-21.05l-4.78,8.27c1.29,6.92,1.93,13.86,1.93,20.82,0,2.73-.11,5.45-.32,8.18l-.28,3.13h-6.98c-.13-.02-.29-.03-.47-.05v-.05c-.64-.06-1.18-.15-1.61-.28-1.26-.52-2.22-1.27-2.9-2.25.24-1.65.37-3.36.37-5.1,0-2.36-.3-4.67-.9-6.94-.6-2.27-1.62-4.29-3.06-6.07l-4.83,8.46c1.41,1.72,2.42,3.68,3.03,5.88.55,2.11.84,4.26.87,6.43h-14.84c-2.14-.03-3.71-.41-4.69-1.15-.83-.55-1.52-1.47-2.07-2.76,1.59-1.13,3.34-1.73,5.24-1.79l5.74-9.38c-.89.25-1.8.48-2.73.69-.94.21-1.86.32-2.78.32-.98,0-1.95-.18-2.9-.55-1.84-.95-3.4-2.21-4.69-3.77-2.82-3.28-6.02-4.92-9.61-4.92-.86,0-1.7.09-2.53.28-2.42.58-4.37,1.79-5.86,3.61-1.49,1.82-2.64,3.54-3.47,5.15-.83,1.61-1.24,2.6-1.24,2.96,0,.18.05.28.14.28.06,0,.44-.43,1.15-1.29.18-.24.49-.54.92-.87.92-.61,1.88-1.05,2.9-1.31,1.01-.26,2.05-.39,3.13-.39,1.47,0,2.9.26,4.27.78,1.38.52,2.82,1.67,4.32,3.45,1.26,1.53,2.91,2.87,4.96,4-.49.49-1.01.94-1.56,1.33-.52.31-1.04.5-1.56.57-.52.08-1.06.11-1.61.11h-6.66c-1.35,0-2.65.05-3.91.14-1.75.15-3.42.6-5.01,1.33-1.5.8-2.75,1.9-3.75,3.31-1,1.41-1.86,2.87-2.6,4.37l-2.53,4.96c-.61,1.1-1.13,2.25-1.56,3.45-.43,1.19-.64,2.42-.64,3.68.09,2.18.67,4.2,1.72,6.07,1.06,1.87,2.43,3.48,4.11,4.83,2.79,2.18,5.43,3.47,7.93,3.88,2.5.41,4.54.62,6.14.62,1.81,0,3.6-.17,5.38-.51l6.99-8c-1.62.24-3.26.37-4.92.37s-3.32-.12-5.01-.37c-3.37-.52-6.4-1.71-9.08-3.56-2.68-1.85-4.59-4.48-5.72-7.88-.31-.95-.48-1.9-.51-2.85.18-.09.4-.17.64-.23,1.5-.4,3.05-.6,4.64-.6h8.73c.86,0,1.59-.03,2.18-.09.6-.06,1.19-.24,1.77-.55,1.26-.83,2.34-1.87,3.26-3.13,1.16-2.67,2.47-4.83,3.91-6.48-.12,1.75-.18,3.23-.18,4.46,0,1.44.2,2.87.6,4.3.4,1.42,1.12,2.67,2.16,3.75,1.23,1.16,2.67,1.9,4.32,2.21.06.03.24.05.55.07.31.02.93.03,1.88.05.81.01,2.05.02,3.72.02h0s9.93,0,9.93,0l3.49-9.19c.4,1.23,1.01,2.9,1.84,5.01.92,2.42,2.21,3.8,3.86,4.14h.32c.06,0,.14.02.23.02v.02h7.03c-.18.46-.29.92-.32,1.38.03.06.05.12.05.18v.05l.18-.14c.24-.15.38-.29.41-.41l.28-.37c.18-.25.38-.48.6-.69h30.33l3.22-8.41c.37,1.13.89,2.54,1.56,4.23.92,2.42,2.21,3.78,3.86,4.09.17.03.42.06.74.07v.02c.17,0,.32,0,.48,0,.12,0,.26,0,.4,0h0c.27-.02.52-.03.74-.05,1.65-.34,2.95-.95,3.88-1.84.93-.89,1.6-2.73,2-5.52,0-.21.02-.41.05-.6.83,1.07,1.73,2.22,2.71,3.45,2.39,3.13,5.15,4.76,8.27,4.92,2.3.09,4.3-.92,6.02-3.03.67-.83,1.56-2.4,2.67-4.73h.05c.37,2.79,1.02,4.63,1.95,5.52.93.89,2.23,1.5,3.88,1.84.19.01.41.02.64.03h0s6.43.01,6.43.01l4.69-13.01c.7-3.19,1.07-6.39,1.1-9.61.09-1.53.14-3.06.14-4.6,0-7.66-.89-15.53-2.67-23.62-.21-.83-.43-1.67-.64-2.53M131.45,217.02c.09-.09.2-.18.32-.28.61-.61,1.27-1.24,1.98-1.88.7-.64,1.42-1.26,2.14-1.86.72-.6,1.43-1.16,2.14-1.68,1.53-1.19,3.13-2.27,4.78-3.24,1.65-.97,3.26-1.45,4.83-1.45,1.44,0,2.66.41,3.65,1.22,1,.81,1.82,1.85,2.46,3.1.64,1.26,1.15,2.59,1.52,4,.18.71.34,1.39.46,2.07h-24.27ZM189.18,217.44h-.37c-2.18,0-4.31-.58-6.39-1.75-2.7-1.5-4.35-2.5-4.96-2.99l3.22-5.84c2.39,1.41,5.22,4.01,8.5,7.81.67.8,1.26,1.65,1.75,2.57-.58.12-1.16.18-1.75.18"/>
    <path class="cls-4" d="M224.7,200.62c-.25-8.12-1.32-16.1-3.22-23.94l-5.42,13.01c1.96,7.75,3.03,15.61,3.22,23.58l.05,2.16-.09,3.08-.23,11.44c2.3-5.85,3.8-10.08,4.5-12.68.52-2.3.87-4.43,1.03-6.39.17-1.96.25-3.84.25-5.65,0-1.53-.03-3.06-.09-4.6"/>
  </g>
</svg>